<svg xmlns="http://www.w3.org/2000/svg" xmlns:xlink="http://www.w3.org/1999/xlink" width="100" zoomAndPan="magnify" viewBox="0 0 75 74.999997" height="100" preserveAspectRatio="xMidYMid meet" version="1.2"><defs><clipPath id="078e9a7615"><path d="M 37 19.726562 L 48.199219 19.726562 L 48.199219 29 L 37 29 Z M 37 19.726562 "/></clipPath><clipPath id="cfdf75f5b5"><path d="M 26.449219 28 L 29 28 L 29 33 L 26.449219 33 Z M 26.449219 28 "/></clipPath><clipPath id="c5857c37a4"><path d="M 34.171875 36.804688 L 39.957031 36.804688 L 39.957031 38.476562 L 34.171875 38.476562 Z M 34.171875 36.804688 "/></clipPath></defs><g id="f748f1ad75"><rect x="0" width="75" y="0" height="74.999997" style="fill:#ffffff;fill-opacity:1;stroke:none;"/><rect x="0" width="75" y="0" height="74.999997" style="fill:#ffffff;fill-opacity:1;stroke:none;"/><path style=" stroke:none;fill-rule:nonzero;fill:#835ace;fill-opacity:1;" d="M 37.070312 23.757812 C 36.125 23.757812 35.308594 24.316406 34.921875 25.117188 L 39.214844 25.117188 C 38.824219 24.316406 38.011719 23.757812 37.070312 23.757812 "/><path style=" stroke:none;fill-rule:nonzero;fill:#835ace;fill-opacity:1;" d="M 45.957031 26.78125 L 45.957031 28.738281 L 46.492188 28.738281 L 46.492188 26.78125 C 46.40625 26.8125 46.316406 26.828125 46.222656 26.828125 C 46.125 26.828125 46.039062 26.8125 45.957031 26.78125 "/><path style=" stroke:none;fill-rule:nonzero;fill:#835ace;fill-opacity:1;" d="M 40.402344 30.015625 C 40.9375 30.015625 41.363281 30.445312 41.363281 30.976562 C 41.363281 31.519531 40.9375 31.949219 40.402344 31.949219 C 39.875 31.949219 39.449219 31.519531 39.449219 30.976562 C 39.449219 30.445312 39.875 30.015625 40.402344 30.015625 Z M 38.546875 30.976562 C 38.546875 32.023438 39.375 32.859375 40.402344 32.859375 C 41.4375 32.859375 42.265625 32.023438 42.265625 30.976562 C 42.265625 29.941406 41.4375 29.101562 40.402344 29.101562 C 39.375 29.101562 38.546875 29.941406 38.546875 30.976562 "/><g clip-rule="nonzero" clip-path="url(#078e9a7615)"><path style=" stroke:none;fill-rule:nonzero;fill:#835ace;fill-opacity:1;" d="M 40.050781 24.46875 L 41.628906 24.46875 C 41.488281 25.835938 40.9375 27.050781 40.292969 28.226562 C 41.3125 27.582031 42.691406 26.628906 43.640625 24.46875 L 45.8125 24.46875 C 47.101562 24.46875 48.160156 23.402344 48.160156 22.097656 C 48.160156 20.792969 47.101562 19.726562 45.8125 19.726562 L 40.050781 19.726562 C 38.757812 19.726562 37.703125 20.792969 37.703125 22.097656 C 37.703125 23.402344 38.757812 24.46875 40.050781 24.46875 "/></g><path style=" stroke:none;fill-rule:nonzero;fill:#835ace;fill-opacity:1;" d="M 47.082031 25.738281 C 47.082031 25.265625 46.691406 24.878906 46.222656 24.878906 C 45.753906 24.878906 45.371094 25.265625 45.371094 25.738281 C 45.371094 26.21875 45.753906 26.605469 46.222656 26.605469 C 46.691406 26.605469 47.082031 26.21875 47.082031 25.738281 "/><g clip-rule="nonzero" clip-path="url(#cfdf75f5b5)"><path style=" stroke:none;fill-rule:nonzero;fill:#835ace;fill-opacity:1;" d="M 28.234375 28.960938 L 27.296875 28.960938 C 26.828125 28.960938 26.453125 29.347656 26.453125 29.816406 L 26.453125 32.148438 C 26.453125 32.617188 26.828125 33 27.296875 33 L 28.234375 33 C 27.992188 32.371094 27.863281 31.691406 27.863281 30.976562 C 27.863281 30.273438 27.992188 29.59375 28.234375 28.960938 "/></g><path style=" stroke:none;fill-rule:nonzero;fill:#835ace;fill-opacity:1;" d="M 27.914062 26.605469 C 28.382812 26.605469 28.765625 26.21875 28.765625 25.738281 C 28.765625 25.265625 28.382812 24.878906 27.914062 24.878906 C 27.441406 24.878906 27.0625 25.265625 27.0625 25.738281 C 27.0625 26.21875 27.441406 26.605469 27.914062 26.605469 "/><path style=" stroke:none;fill-rule:nonzero;fill:#835ace;fill-opacity:1;" d="M 46.707031 28.960938 L 45.898438 28.960938 C 46.140625 29.59375 46.273438 30.273438 46.273438 30.976562 C 46.273438 31.691406 46.140625 32.371094 45.898438 33 L 46.707031 33 C 47.167969 33 47.550781 32.617188 47.550781 32.148438 L 47.550781 29.816406 C 47.550781 29.347656 47.167969 28.960938 46.707031 28.960938 "/><g clip-rule="nonzero" clip-path="url(#c5857c37a4)"><path style=" stroke:none;fill-rule:nonzero;fill:#835ace;fill-opacity:1;" d="M 34.1875 38.480469 L 39.949219 38.480469 L 39.949219 36.847656 L 34.1875 36.847656 L 34.1875 38.480469 "/></g><path style=" stroke:none;fill-rule:nonzero;fill:#835ace;fill-opacity:1;" d="M 43.058594 25.988281 C 42.699219 26.515625 42.289062 26.96875 41.8125 27.390625 C 43.242188 27.9375 44.269531 29.347656 44.269531 30.976562 C 44.269531 33.097656 42.558594 34.824219 40.460938 34.824219 L 33.671875 34.824219 C 31.574219 34.824219 29.863281 33.097656 29.863281 30.976562 C 29.863281 28.867188 31.574219 27.140625 33.671875 27.140625 L 40.460938 27.140625 C 40.511719 27.140625 40.558594 27.140625 40.601562 27.140625 C 40.863281 26.574219 41.09375 25.996094 41.238281 25.390625 C 40.988281 25.351562 40.726562 25.335938 40.460938 25.335938 L 33.671875 25.335938 C 30.597656 25.335938 28.082031 27.871094 28.082031 30.976562 C 28.082031 34.082031 30.597656 36.625 33.671875 36.625 L 40.460938 36.625 C 43.535156 36.625 46.054688 34.082031 46.054688 30.976562 C 46.054688 28.820312 44.835938 26.9375 43.058594 25.988281 "/><path style=" stroke:none;fill-rule:nonzero;fill:#835ace;fill-opacity:1;" d="M 27.648438 26.78125 L 27.648438 28.738281 L 28.175781 28.738281 L 28.175781 26.78125 C 28.097656 26.8125 28.007812 26.828125 27.914062 26.828125 C 27.816406 26.828125 27.730469 26.8125 27.648438 26.78125 "/><path style=" stroke:none;fill-rule:nonzero;fill:#835ace;fill-opacity:1;" d="M 34.6875 30.976562 C 34.6875 31.519531 34.261719 31.949219 33.730469 31.949219 C 33.195312 31.949219 32.769531 31.519531 32.769531 30.976562 C 32.769531 30.445312 33.195312 30.015625 33.730469 30.015625 C 34.261719 30.015625 34.6875 30.445312 34.6875 30.976562 Z M 31.867188 30.976562 C 31.867188 32.023438 32.695312 32.859375 33.730469 32.859375 C 34.757812 32.859375 35.597656 32.023438 35.597656 30.976562 C 35.597656 29.941406 34.757812 29.101562 33.730469 29.101562 C 32.695312 29.101562 31.867188 29.941406 31.867188 30.976562 "/><g style="fill:#ff9133;fill-opacity:1;"><g transform="translate(20.416406, 48.784499)"><path style="stroke:none" d="M 8.484375 0 L 5.640625 0 L 2.71875 -5.640625 L 2.671875 -5.640625 C 2.691406 -5.460938 2.707031 -5.253906 2.71875 -5.015625 C 2.738281 -4.773438 2.753906 -4.53125 2.765625 -4.28125 C 2.773438 -4.03125 2.78125 -3.804688 2.78125 -3.609375 L 2.78125 0 L 0.859375 0 L 0.859375 -8 L 3.6875 -8 L 6.59375 -2.4375 L 6.625 -2.4375 C 6.613281 -2.613281 6.601562 -2.816406 6.59375 -3.046875 C 6.582031 -3.273438 6.570312 -3.507812 6.5625 -3.75 C 6.550781 -3.988281 6.546875 -4.195312 6.546875 -4.375 L 6.546875 -8 L 8.484375 -8 Z M 8.484375 0 "/></g></g><g style="fill:#ff9133;fill-opacity:1;"><g transform="translate(29.755727, 48.784499)"><path style="stroke:none" d="M 8.34375 -4.015625 C 8.34375 -3.390625 8.269531 -2.820312 8.125 -2.3125 C 7.976562 -1.8125 7.75 -1.378906 7.4375 -1.015625 C 7.125 -0.648438 6.71875 -0.367188 6.21875 -0.171875 C 5.726562 0.015625 5.140625 0.109375 4.453125 0.109375 C 3.785156 0.109375 3.207031 0.015625 2.71875 -0.171875 C 2.226562 -0.367188 1.820312 -0.648438 1.5 -1.015625 C 1.1875 -1.378906 0.953125 -1.8125 0.796875 -2.3125 C 0.640625 -2.820312 0.5625 -3.390625 0.5625 -4.015625 C 0.5625 -4.847656 0.695312 -5.570312 0.96875 -6.1875 C 1.25 -6.800781 1.675781 -7.273438 2.25 -7.609375 C 2.832031 -7.953125 3.570312 -8.125 4.46875 -8.125 C 5.382812 -8.125 6.125 -7.953125 6.6875 -7.609375 C 7.257812 -7.273438 7.675781 -6.796875 7.9375 -6.171875 C 8.207031 -5.554688 8.34375 -4.835938 8.34375 -4.015625 Z M 2.84375 -4.015625 C 2.84375 -3.523438 2.894531 -3.109375 3 -2.765625 C 3.113281 -2.421875 3.289062 -2.15625 3.53125 -1.96875 C 3.769531 -1.78125 4.078125 -1.6875 4.453125 -1.6875 C 4.847656 -1.6875 5.164062 -1.78125 5.40625 -1.96875 C 5.644531 -2.15625 5.816406 -2.421875 5.921875 -2.765625 C 6.023438 -3.109375 6.078125 -3.523438 6.078125 -4.015625 C 6.078125 -4.734375 5.953125 -5.300781 5.703125 -5.71875 C 5.460938 -6.132812 5.050781 -6.34375 4.46875 -6.34375 C 4.082031 -6.34375 3.769531 -6.25 3.53125 -6.0625 C 3.289062 -5.875 3.113281 -5.601562 3 -5.25 C 2.894531 -4.90625 2.84375 -4.492188 2.84375 -4.015625 Z M 2.84375 -4.015625 "/></g></g><g style="fill:#ff9133;fill-opacity:1;"><g transform="translate(38.679481, 48.784499)"><path style="stroke:none" d="M 7.765625 -8 L 5.15625 0 L 2.609375 0 L 0 -8 L 2.421875 -8 L 3.515625 -3.9375 C 3.554688 -3.789062 3.601562 -3.597656 3.65625 -3.359375 C 3.707031 -3.117188 3.753906 -2.878906 3.796875 -2.640625 C 3.847656 -2.398438 3.878906 -2.207031 3.890625 -2.0625 C 3.898438 -2.207031 3.925781 -2.394531 3.96875 -2.625 C 4.007812 -2.863281 4.050781 -3.097656 4.09375 -3.328125 C 4.144531 -3.566406 4.195312 -3.765625 4.25 -3.921875 L 5.359375 -8 Z M 7.765625 -8 "/></g></g><g style="fill:#ff9133;fill-opacity:1;"><g transform="translate(46.44949, 48.784499)"><path style="stroke:none" d="M 5.765625 0 L 5.375 -1.5 L 2.78125 -1.5 L 2.375 0 L 0 0 L 2.609375 -8.03125 L 5.484375 -8.03125 L 8.140625 0 Z M 4.921875 -3.265625 L 4.578125 -4.578125 C 4.546875 -4.722656 4.492188 -4.925781 4.421875 -5.1875 C 4.359375 -5.457031 4.289062 -5.734375 4.21875 -6.015625 C 4.15625 -6.296875 4.101562 -6.53125 4.0625 -6.71875 C 4.03125 -6.53125 3.984375 -6.300781 3.921875 -6.03125 C 3.859375 -5.769531 3.796875 -5.503906 3.734375 -5.234375 C 3.671875 -4.972656 3.617188 -4.753906 3.578125 -4.578125 L 3.234375 -3.265625 Z M 4.921875 -3.265625 "/></g></g><g style="fill:#ff9133;fill-opacity:1;"><g transform="translate(30.030614, 54.164181)"><path style="stroke:none" d="M 1.890625 -2.71875 C 1.785156 -2.71875 1.6875 -2.691406 1.59375 -2.640625 C 1.507812 -2.597656 1.4375 -2.53125 1.375 -2.4375 C 1.320312 -2.351562 1.273438 -2.25 1.234375 -2.125 C 1.203125 -2 1.1875 -1.859375 1.1875 -1.703125 C 1.1875 -1.484375 1.210938 -1.300781 1.265625 -1.15625 C 1.328125 -1.007812 1.410156 -0.894531 1.515625 -0.8125 C 1.628906 -0.738281 1.773438 -0.703125 1.953125 -0.703125 C 2.097656 -0.703125 2.238281 -0.722656 2.375 -0.765625 C 2.519531 -0.816406 2.664062 -0.867188 2.8125 -0.921875 L 2.8125 -0.140625 C 2.664062 -0.078125 2.507812 -0.03125 2.34375 0 C 2.1875 0.03125 2.019531 0.046875 1.84375 0.046875 C 1.46875 0.046875 1.160156 -0.0234375 0.921875 -0.171875 C 0.691406 -0.316406 0.519531 -0.519531 0.40625 -0.78125 C 0.300781 -1.050781 0.25 -1.359375 0.25 -1.703125 C 0.25 -1.960938 0.285156 -2.195312 0.359375 -2.40625 C 0.429688 -2.625 0.535156 -2.8125 0.671875 -2.96875 C 0.816406 -3.132812 0.988281 -3.257812 1.1875 -3.34375 C 1.394531 -3.425781 1.632812 -3.46875 1.90625 -3.46875 C 2.070312 -3.46875 2.242188 -3.445312 2.421875 -3.40625 C 2.609375 -3.375 2.789062 -3.316406 2.96875 -3.234375 L 2.6875 -2.5 C 2.5625 -2.5625 2.429688 -2.613281 2.296875 -2.65625 C 2.171875 -2.695312 2.035156 -2.71875 1.890625 -2.71875 Z M 1.890625 -2.71875 "/></g><g transform="translate(33.145458, 54.164181)"><path style="stroke:none" d="M 0.375 0 L 0.375 -3.421875 L 1.296875 -3.421875 L 1.296875 -0.75 L 2.609375 -0.75 L 2.609375 0 Z M 0.375 0 "/></g><g transform="translate(35.939207, 54.164181)"><path style="stroke:none" d="M 2.46875 0 L 2.296875 -0.640625 L 1.1875 -0.640625 L 1.015625 0 L 0 0 L 1.125 -3.4375 L 2.359375 -3.4375 L 3.484375 0 Z M 2.109375 -1.40625 L 1.96875 -1.96875 C 1.945312 -2.019531 1.921875 -2.101562 1.890625 -2.21875 C 1.859375 -2.332031 1.828125 -2.445312 1.796875 -2.5625 C 1.773438 -2.6875 1.753906 -2.789062 1.734375 -2.875 C 1.722656 -2.789062 1.703125 -2.691406 1.671875 -2.578125 C 1.648438 -2.460938 1.625 -2.347656 1.59375 -2.234375 C 1.570312 -2.128906 1.550781 -2.039062 1.53125 -1.96875 L 1.375 -1.40625 Z M 2.109375 -1.40625 "/></g><g transform="translate(39.424363, 54.164181)"><path style="stroke:none" d="M 2.609375 -1.046875 C 2.609375 -0.859375 2.5625 -0.679688 2.46875 -0.515625 C 2.375 -0.347656 2.226562 -0.210938 2.03125 -0.109375 C 1.832031 -0.00390625 1.578125 0.046875 1.265625 0.046875 C 1.109375 0.046875 0.96875 0.0351562 0.84375 0.015625 C 0.726562 0.00390625 0.617188 -0.015625 0.515625 -0.046875 C 0.421875 -0.078125 0.316406 -0.117188 0.203125 -0.171875 L 0.203125 -1 C 0.390625 -0.90625 0.578125 -0.832031 0.765625 -0.78125 C 0.960938 -0.726562 1.132812 -0.703125 1.28125 -0.703125 C 1.375 -0.703125 1.445312 -0.710938 1.5 -0.734375 C 1.5625 -0.753906 1.609375 -0.785156 1.640625 -0.828125 C 1.671875 -0.867188 1.6875 -0.910156 1.6875 -0.953125 C 1.6875 -1.015625 1.664062 -1.066406 1.625 -1.109375 C 1.582031 -1.148438 1.515625 -1.191406 1.421875 -1.234375 C 1.328125 -1.285156 1.207031 -1.34375 1.0625 -1.40625 C 0.9375 -1.46875 0.820312 -1.53125 0.71875 -1.59375 C 0.613281 -1.65625 0.523438 -1.722656 0.453125 -1.796875 C 0.378906 -1.878906 0.320312 -1.972656 0.28125 -2.078125 C 0.25 -2.191406 0.234375 -2.320312 0.234375 -2.46875 C 0.234375 -2.6875 0.285156 -2.867188 0.390625 -3.015625 C 0.503906 -3.171875 0.65625 -3.285156 0.84375 -3.359375 C 1.039062 -3.429688 1.269531 -3.46875 1.53125 -3.46875 C 1.75 -3.46875 1.945312 -3.441406 2.125 -3.390625 C 2.300781 -3.347656 2.460938 -3.296875 2.609375 -3.234375 L 2.328125 -2.515625 C 2.179688 -2.578125 2.035156 -2.628906 1.890625 -2.671875 C 1.742188 -2.710938 1.613281 -2.734375 1.5 -2.734375 C 1.414062 -2.734375 1.347656 -2.722656 1.296875 -2.703125 C 1.242188 -2.679688 1.207031 -2.65625 1.1875 -2.625 C 1.164062 -2.59375 1.15625 -2.554688 1.15625 -2.515625 C 1.15625 -2.460938 1.175781 -2.414062 1.21875 -2.375 C 1.257812 -2.332031 1.328125 -2.285156 1.421875 -2.234375 C 1.515625 -2.179688 1.648438 -2.117188 1.828125 -2.046875 C 1.992188 -1.972656 2.132812 -1.890625 2.25 -1.796875 C 2.363281 -1.710938 2.453125 -1.609375 2.515625 -1.484375 C 2.578125 -1.367188 2.609375 -1.222656 2.609375 -1.046875 Z M 2.609375 -1.046875 "/></g><g transform="translate(42.194676, 54.164181)"><path style="stroke:none" d="M 2.609375 -1.046875 C 2.609375 -0.859375 2.5625 -0.679688 2.46875 -0.515625 C 2.375 -0.347656 2.226562 -0.210938 2.03125 -0.109375 C 1.832031 -0.00390625 1.578125 0.046875 1.265625 0.046875 C 1.109375 0.046875 0.96875 0.0351562 0.84375 0.015625 C 0.726562 0.00390625 0.617188 -0.015625 0.515625 -0.046875 C 0.421875 -0.078125 0.316406 -0.117188 0.203125 -0.171875 L 0.203125 -1 C 0.390625 -0.90625 0.578125 -0.832031 0.765625 -0.78125 C 0.960938 -0.726562 1.132812 -0.703125 1.28125 -0.703125 C 1.375 -0.703125 1.445312 -0.710938 1.5 -0.734375 C 1.5625 -0.753906 1.609375 -0.785156 1.640625 -0.828125 C 1.671875 -0.867188 1.6875 -0.910156 1.6875 -0.953125 C 1.6875 -1.015625 1.664062 -1.066406 1.625 -1.109375 C 1.582031 -1.148438 1.515625 -1.191406 1.421875 -1.234375 C 1.328125 -1.285156 1.207031 -1.34375 1.0625 -1.40625 C 0.9375 -1.46875 0.820312 -1.53125 0.71875 -1.59375 C 0.613281 -1.65625 0.523438 -1.722656 0.453125 -1.796875 C 0.378906 -1.878906 0.320312 -1.972656 0.28125 -2.078125 C 0.25 -2.191406 0.234375 -2.320312 0.234375 -2.46875 C 0.234375 -2.6875 0.285156 -2.867188 0.390625 -3.015625 C 0.503906 -3.171875 0.65625 -3.285156 0.84375 -3.359375 C 1.039062 -3.429688 1.269531 -3.46875 1.53125 -3.46875 C 1.75 -3.46875 1.945312 -3.441406 2.125 -3.390625 C 2.300781 -3.347656 2.460938 -3.296875 2.609375 -3.234375 L 2.328125 -2.515625 C 2.179688 -2.578125 2.035156 -2.628906 1.890625 -2.671875 C 1.742188 -2.710938 1.613281 -2.734375 1.5 -2.734375 C 1.414062 -2.734375 1.347656 -2.722656 1.296875 -2.703125 C 1.242188 -2.679688 1.207031 -2.65625 1.1875 -2.625 C 1.164062 -2.59375 1.15625 -2.554688 1.15625 -2.515625 C 1.15625 -2.460938 1.175781 -2.414062 1.21875 -2.375 C 1.257812 -2.332031 1.328125 -2.285156 1.421875 -2.234375 C 1.515625 -2.179688 1.648438 -2.117188 1.828125 -2.046875 C 1.992188 -1.972656 2.132812 -1.890625 2.25 -1.796875 C 2.363281 -1.710938 2.453125 -1.609375 2.515625 -1.484375 C 2.578125 -1.367188 2.609375 -1.222656 2.609375 -1.046875 Z M 2.609375 -1.046875 "/></g></g></g></svg>